<svg width="32" height="32" viewBox="0 0 32 32" fill="none" xmlns="http://www.w3.org/2000/svg">
<path d="M21.4141 3.2721C21.789 3.64715 21.9997 4.15577 21.9997 4.6861C21.9997 5.21642 21.789 5.72504 21.4141 6.1001L11.5141 16.0001L21.4141 25.9001C21.7784 26.2773 21.98 26.7825 21.9754 27.3069C21.9709 27.8313 21.7605 28.3329 21.3897 28.7037C21.0189 29.0746 20.5173 29.2849 19.9929 29.2894C19.4685 29.294 18.9633 29.0924 18.5861 28.7281L7.2721 17.4141C6.89715 17.039 6.68652 16.5304 6.68652 16.0001C6.68652 15.4698 6.89715 14.9612 7.2721 14.5861L18.5861 3.2721C18.9612 2.89715 19.4698 2.68652 20.0001 2.68652C20.5304 2.68652 21.039 2.89715 21.4141 3.2721V3.2721Z" fill="black"/>
</svg>
