<svg width="32" height="32" viewBox="0 0 32 32" fill="none" xmlns="http://www.w3.org/2000/svg">
<path d="M10.5861 3.2721C10.2111 3.64715 10.0005 4.15577 10.0005 4.6861C10.0005 5.21642 10.2111 5.72504 10.5861 6.1001L20.4861 16.0001L10.5861 25.9001C10.2217 26.2773 10.0202 26.7825 10.0247 27.3069C10.0293 27.8313 10.2396 28.3329 10.6104 28.7037C10.9812 29.0746 11.4829 29.2849 12.0073 29.2894C12.5317 29.294 13.0369 29.0924 13.4141 28.7281L24.7281 17.4141C25.103 17.039 25.3136 16.5304 25.3136 16.0001C25.3136 15.4698 25.103 14.9612 24.7281 14.5861L13.4141 3.2721C13.039 2.89715 12.5304 2.68652 12.0001 2.68652C11.4697 2.68652 10.9611 2.89715 10.5861 3.2721V3.2721Z" fill="black"/>
</svg>
